<?xml version="1.0" standalone="no"?>
<!DOCTYPE svg PUBLIC "-//W3C//DTD SVG 20010904//EN"
 "http://www.w3.org/TR/2001/REC-SVG-20010904/DTD/svg10.dtd">
<svg version="1.0" xmlns="http://www.w3.org/2000/svg"
 width="800.000000pt" height="800.000000pt" viewBox="0 0 800.000000 800.000000"
 preserveAspectRatio="xMidYMid meet">
<metadata>
Created by potrace 1.11, written by Peter Selinger 2001-2013
</metadata>
<g transform="translate(0.000000,800.000000) scale(0.100000,-0.100000)"
fill="#000000" stroke="none">
<path d="M2605 6900 c-34 -13 -76 -66 -86 -106 -4 -22 -9 -166 -9 -321 0 -244
-2 -283 -15 -284 -17 -2 -16 -1 -74 -18 -24 -7 -51 -16 -60 -21 -9 -4 -34 -16
-56 -26 -231 -107 -422 -335 -484 -580 -27 -106 -29 -122 -30 -246 l-1 -107
-297 -3 c-268 -3 -301 -5 -328 -21 -70 -43 -93 -118 -53 -176 48 -72 55 -74
380 -75 223 -1 292 -4 296 -13 3 -10 -59 -13 -285 -13 -280 0 -290 -1 -333
-22 -104 -53 -102 -180 3 -235 28 -14 70 -17 325 -16 238 1 292 -2 292 -12 0
-11 -57 -14 -297 -17 -288 -3 -299 -4 -334 -25 -66 -41 -83 -121 -40 -182 42
-59 65 -62 384 -63 233 -1 287 -4 287 -15 0 -10 -54 -13 -285 -14 -324 -2
-289 1 -337 -23 -113 -55 -90 -209 37 -241 17 -4 155 -7 308 -7 232 0 277 -2
277 -14 0 -12 -47 -14 -285 -14 -310 0 -329 -3 -378 -55 -58 -63 -38 -151 43
-192 43 -22 53 -23 332 -23 249 0 288 -2 288 -15 0 -13 -39 -15 -287 -15 -269
0 -289 -1 -329 -20 -111 -54 -105 -187 9 -235 30 -12 90 -15 322 -15 247 0
285 -2 285 -15 0 -13 -38 -15 -285 -15 -233 0 -292 -3 -323 -15 -114 -46 -114
-194 -1 -239 34 -14 86 -17 325 -17 237 -1 284 -3 284 -15 0 -12 -47 -14 -285
-14 -321 0 -347 -5 -390 -67 -41 -61 -18 -144 49 -181 27 -15 71 -17 329 -20
l297 -3 1 -92 c1 -115 4 -153 19 -219 35 -162 115 -312 228 -431 105 -110 220
-183 372 -233 l95 -32 5 -304 c5 -298 5 -304 29 -342 44 -70 127 -83 190 -30
49 41 53 72 53 363 0 270 2 301 19 301 5 0 9 -117 9 -288 0 -282 1 -290 23
-332 43 -81 129 -101 196 -44 49 41 54 72 55 378 1 214 4 280 14 284 9 3 12
-59 12 -285 0 -280 1 -290 23 -333 40 -79 125 -101 191 -49 56 44 58 57 59
372 2 222 5 291 15 295 9 3 12 -58 12 -282 0 -311 4 -338 56 -383 75 -64 191
-17 210 85 4 20 7 159 7 307 l-1 271 314 0 314 0 0 -283 c0 -237 3 -289 16
-323 29 -72 110 -108 172 -76 32 16 72 65 77 94 2 9 4 146 4 303 1 247 3 286
16 286 13 0 15 -39 15 -286 0 -257 2 -290 19 -327 49 -107 178 -108 233 -2 17
33 19 62 19 325 0 247 2 290 14 290 13 0 15 -43 15 -289 0 -270 1 -291 20
-328 39 -76 114 -100 178 -57 70 46 72 58 72 384 0 251 2 290 15 290 13 0 15
-39 15 -286 0 -259 2 -290 19 -328 24 -52 63 -78 116 -78 52 0 89 24 115 75
19 38 21 60 23 336 l2 296 85 27 c88 28 194 79 242 116 14 11 41 31 59 45 81
61 180 184 230 282 75 148 101 263 103 451 l0 87 289 0 c269 0 290 1 327 20
74 38 100 118 58 179 -46 68 -58 70 -376 71 -156 0 -289 3 -294 6 -29 18 33
23 286 23 269 -1 285 0 324 20 98 50 108 160 20 223 -32 23 -39 23 -333 28
-229 4 -301 8 -302 18 -2 9 60 12 287 12 272 0 293 1 330 20 105 54 103 182
-3 230 -38 18 -68 20 -328 20 -247 0 -286 2 -286 15 0 13 39 15 289 15 158 0
289 -1 291 -1 1 -1 17 7 36 18 105 58 104 186 -3 234 -37 17 -70 19 -327 19
-238 0 -286 2 -286 14 0 12 47 14 283 14 308 0 337 4 378 53 56 67 39 151 -40
196 -38 22 -47 23 -330 23 -239 0 -291 2 -291 14 0 11 52 13 292 13 242 0 296
3 320 16 105 54 112 170 15 230 -33 21 -49 22 -330 27 -189 3 -294 9 -293 15
2 6 103 11 275 12 149 1 286 4 303 7 18 4 49 21 69 39 31 27 38 40 41 78 5 59
-21 104 -73 127 -31 14 -83 18 -326 22 -195 3 -291 9 -293 16 -2 7 81 11 280
11 192 0 296 4 320 12 38 13 81 56 92 92 19 60 -31 139 -101 158 -24 7 -150
11 -315 11 l-276 0 0 83 c1 206 -47 377 -149 534 -35 54 -170 196 -224 236
-76 56 -284 147 -336 147 -12 0 -14 46 -14 294 1 250 -2 300 -16 335 -26 64
-69 89 -149 82 -29 -2 -73 -43 -90 -84 -12 -30 -15 -90 -15 -322 0 -243 -2
-285 -15 -285 -12 0 -14 42 -14 284 0 313 -5 343 -61 384 -67 50 -146 30 -187
-48 -22 -42 -23 -51 -23 -332 0 -243 -2 -288 -14 -288 -12 0 -15 45 -15 285 0
261 -2 290 -20 330 -14 32 -30 49 -61 65 -69 35 -133 10 -170 -64 -19 -40 -20
-60 -20 -329 0 -248 -2 -287 -15 -287 -13 0 -15 39 -15 291 0 321 -2 335 -62
379 -36 26 -94 31 -132 10 -27 -14 -65 -66 -71 -98 -2 -9 -4 -144 -4 -299 l-1
-283 -313 0 -314 0 0 268 c0 287 -4 331 -35 374 -22 32 -75 58 -110 55 -35 -3
-83 -36 -104 -71 -17 -28 -19 -58 -22 -329 -2 -226 -6 -297 -15 -294 -9 3 -12
78 -13 290 -1 262 -3 289 -21 323 -38 73 -102 97 -170 63 -40 -19 -69 -58 -77
-100 -3 -13 -5 -149 -5 -302 -1 -218 -4 -278 -13 -275 -10 4 -13 69 -14 280
-1 152 -4 289 -8 304 -12 47 -53 92 -95 105 -34 10 -45 9 -83 -9 -81 -40 -83
-45 -86 -384 -2 -236 -6 -298 -16 -298 -10 0 -13 59 -13 289 0 268 -1 291 -20
327 -10 21 -30 46 -44 56 -27 21 -83 29 -114 18z"/>
</g>
</svg>
